<svg xmlns="http://www.w3.org/2000/svg" width="26.442" height="30.849" viewBox="0 0 26.442 30.849">
  <path id="Icon_metro-file-powerpoint" data-name="Icon metro-file-powerpoint" d="M27.842,8.745a4.006,4.006,0,0,1,.826,1.308,3.973,3.973,0,0,1,.344,1.515V31.4a1.646,1.646,0,0,1-1.653,1.653H4.223A1.646,1.646,0,0,1,2.571,31.4V3.856A1.646,1.646,0,0,1,4.223,2.2H19.648a3.974,3.974,0,0,1,1.515.344,4.006,4.006,0,0,1,1.308.826ZM20.2,4.545v6.473h6.473a1.881,1.881,0,0,0-.379-.706L20.9,4.923a1.88,1.88,0,0,0-.706-.379Zm6.61,26.3V13.221H19.648a1.646,1.646,0,0,1-1.653-1.653V4.407H4.774V30.849H26.809ZM9.732,26.82v1.825h5.629V26.82h-1.6V23.945h2.358a6.283,6.283,0,0,0,2.031-.258,3.417,3.417,0,0,0,1.833-1.5,4.687,4.687,0,0,0,.68-2.513,4.531,4.531,0,0,0-.637-2.427,3.694,3.694,0,0,0-1.721-1.5,6.23,6.23,0,0,0-2.238-.327H9.732v1.842h1.584V26.82H9.732ZM15.809,22H13.76V17.387h2.066a2.838,2.838,0,0,1,1.429.31,2.106,2.106,0,0,1,.964,1.98,2.086,2.086,0,0,1-1.067,2.066A3.078,3.078,0,0,1,15.809,22Z" transform="translate(-2.571 -2.204)" fill="#fe740c"/>
</svg>
