<svg xmlns="http://www.w3.org/2000/svg" width="29.807" height="29.807" viewBox="0 0 29.807 29.807">
  <path id="Icon_awesome-internet-explorer" data-name="Icon awesome-internet-explorer" d="M28.121,9.3a14.267,14.267,0,0,0,1.247-5.116c0-4.234-4.636-5.727-12.206-2.246-6.266-.418-12.3,4.289-13.8,10.855C5.155,10.761,7.916,8,10.46,6.9a38.475,38.475,0,0,0-7.9,10.081A20.37,20.37,0,0,0,0,25.426c0,5.739,5.406,5.036,10.494,2.445a13.159,13.159,0,0,0,5.92.907,13.048,13.048,0,0,0,12.622-8.5H22c-3.057,5.158-11.458,3.085-11.458-2.762H29.684A13.367,13.367,0,0,0,28.121,9.3ZM3.758,20.194A13.531,13.531,0,0,0,9.6,27.372C4.429,30.221-.491,29.066,3.758,20.194Zm6.752-6.338a5.911,5.911,0,0,1,6.053-5.523,5.922,5.922,0,0,1,6.053,5.523ZM21.253,2.934a10.649,10.649,0,0,1,4.224-1.281,3.013,3.013,0,0,1,3.16,3.127,13.024,13.024,0,0,1-.848,3.951,14.242,14.242,0,0,0-6.536-5.8Z" fill="#1972f8"/>
</svg>
