<svg xmlns="http://www.w3.org/2000/svg" width="15.75" height="14" viewBox="0 0 15.75 14">
  <path id="Icon_awesome-hammer" data-name="Icon awesome-hammer" d="M15.622,5.3,15,4.684a.438.438,0,0,0-.619,0l-.309.309-.79-.79a1.743,1.743,0,0,0-.447-1.685L11.6,1.281a4.375,4.375,0,0,0-6.187,0L7.888,2.519v.513A1.749,1.749,0,0,0,8.4,4.269L9.744,5.612a1.743,1.743,0,0,0,1.685.447l.79.79-.309.309a.438.438,0,0,0,0,.619l.619.619a.438.438,0,0,0,.619,0l2.475-2.475a.438.438,0,0,0,0-.619Zm-7.84-.416a2.654,2.654,0,0,1-.269-.327L.537,11.073a1.691,1.691,0,1,0,2.39,2.39L9.439,6.488a2.659,2.659,0,0,1-.313-.257L7.782,4.887Z" transform="translate(0)" fill="#1fc9e3"/>
</svg>
