<svg xmlns="http://www.w3.org/2000/svg" width="26.054" height="25.402" viewBox="0 0 26.054 25.402">
  <path id="Icon_simple-adobephotoshop" data-name="Icon simple-adobephotoshop" d="M0,.45v25.4H26.054V.45ZM1.086,1.536H24.968V24.767H1.086ZM6.3,6.4c0-.073.152-.126.243-.126.7-.036,1.724-.054,2.8-.054,3.009,0,4.179,1.65,4.179,3.763,0,2.757-2,3.941-4.453,3.941-.413,0-.554-.018-.841-.018v4.171c0,.09-.036.126-.125.126H6.422c-.09,0-.125-.033-.125-.123V6.4Zm1.927,5.767c.25.017.447.017.879.017,1.27,0,2.464-.447,2.464-2.167,0-1.379-.853-2.078-2.3-2.078-.43,0-.841.017-1.039.036v4.195Zm9.344-1.29c-.86,0-1.146.43-1.146.788,0,.394.2.662,1.343,1.254,1.7.825,2.238,1.612,2.238,2.776,0,1.737-1.324,2.671-3.116,2.671a4.743,4.743,0,0,1-2.225-.467c-.071-.036-.087-.089-.087-.179V16.126c0-.109.052-.144.124-.091a4,4,0,0,0,2.184.645c.86,0,1.218-.358,1.218-.842,0-.394-.25-.735-1.343-1.308-1.542-.738-2.186-1.487-2.186-2.743,0-1.4,1.092-2.562,2.991-2.562a5.06,5.06,0,0,1,1.948.3.237.237,0,0,1,.109.215V11.23c0,.09-.054.144-.163.109a3.888,3.888,0,0,0-1.892-.467Z" transform="translate(0 -0.45)" fill="#1e1edb"/>
</svg>
