<svg xmlns="http://www.w3.org/2000/svg" width="36" height="36" viewBox="0 0 36 36">
  <path id="Icon_simple-bootstrap" data-name="Icon simple-bootstrap" d="M30,0H6A6.016,6.016,0,0,0,0,6V30a6.018,6.018,0,0,0,6,6H30a6.018,6.018,0,0,0,6-6V6A6.018,6.018,0,0,0,30,0ZM26.719,25.282a4.678,4.678,0,0,1-1.385,1.851,7.069,7.069,0,0,1-2.41,1.23,11.873,11.873,0,0,1-3.5.458H9.777v-21h10.2a7.268,7.268,0,0,1,4.53,1.29,4.6,4.6,0,0,1,1.707,3.915,4.657,4.657,0,0,1-.777,2.715,4.978,4.978,0,0,1-2.22,1.734v.069a4.537,4.537,0,0,1,2.925,1.823,6.163,6.163,0,0,1,.987,3.58,6,6,0,0,1-.45,2.292l.038.041Zm-4.164-5.175a3.7,3.7,0,0,0-2.595-.837H13.477v6.552h6.5a3.634,3.634,0,0,0,2.595-.87,3.22,3.22,0,0,0,.93-2.46,3.079,3.079,0,0,0-.93-2.385h-.025Zm-.9-4.234a2.679,2.679,0,0,0,.885-2.166,2.728,2.728,0,0,0-.8-2.235,3.563,3.563,0,0,0-2.292-.649h-6v5.794h6a3.306,3.306,0,0,0,2.2-.744Z" fill="#563d7c"/>
</svg>
